{
  "accessors": [
    {
      "bufferView": 2,
      "componentType": 5126,
      "count": 65533,
      "max": [
        24.851280212402344,
        19.608776092529297,
        27.88010025024414
      ],
      "min": [
        -30.57469367980957,
        -14.47914981842041,
        -4.619438171386719
      ],
      "type": "VEC3"
    },
    {
      "bufferView": 2,
      "byteOffset": 786396,
      "componentType": 5126,
      "count": 65533,
      "type": "VEC3"
    },
    {
      "bufferView": 1,
      "componentType": 5126,
      "count": 65533,
      "type": "VEC2"
    },
    {
      "bufferView": 0,
      "componentType": 5125,
      "count": 247752,
      "type": "SCALAR"
    },
    {
      "bufferView": 2,
      "byteOffset": 1572792,
      "componentType": 5126,
      "count": 65532,
      "max": [
        24.80879783630371,
        8.690520286560059,
        28.17219352722168
      ],
      "min": [
        -30.107467651367188,
        -12.603090286254883,
        -4.531349182128906
      ],
      "type": "VEC3"
    },
    {
      "bufferView": 2,
      "byteOffset": 2359176,
      "componentType": 5126,
      "count": 65532,
      "type": "VEC3"
    },
    {
      "bufferView": 1,
      "byteOffset": 524264,
      "componentType": 5126,
      "count": 65532,
      "type": "VEC2"
    },
    {
      "bufferView": 0,
      "byteOffset": 991008,
      "componentType": 5125,
      "count": 233751,
      "type": "SCALAR"
    },
    {
      "bufferView": 2,
      "byteOffset": 3145560,
      "componentType": 5126,
      "count": 65534,
      "max": [
        21.747133255004883,
        8.934805870056152,
        27.195613861083984
      ],
      "min": [
        -30.140188217163086,
        -12.2749605178833,
        -0.3220043182373047
      ],
      "type": "VEC3"
    },
    {
      "bufferView": 2,
      "byteOffset": 3931968,
      "componentType": 5126,
      "count": 65534,
      "type": "VEC3"
    },
    {
      "bufferView": 1,
      "byteOffset": 1048520,
      "componentType": 5126,
      "count": 65534,
      "type": "VEC2"
    },
    {
      "bufferView": 0,
      "byteOffset": 1926012,
      "componentType": 5125,
      "count": 242400,
      "type": "SCALAR"
    },
    {
      "bufferView": 2,
      "byteOffset": 4718376,
      "componentType": 5126,
      "count": 65532,
      "max": [
        17.123737335205078,
        13.927656173706055,
        28.25351905822754
      ],
      "min": [
        -30.57469367980957,
        -13.491326332092285,
        -0.9253826141357422
      ],
      "type": "VEC3"
    },
    {
      "bufferView": 2,
      "byteOffset": 5504760,
      "componentType": 5126,
      "count": 65532,
      "type": "VEC3"
    },
    {
      "bufferView": 1,
      "byteOffset": 1572792,
      "componentType": 5126,
      "count": 65532,
      "type": "VEC2"
    },
    {
      "bufferView": 0,
      "byteOffset": 2895612,
      "componentType": 5125,
      "count": 224412,
      "type": "SCALAR"
    },
    {
      "bufferView": 2,
      "byteOffset": 6291144,
      "componentType": 5126,
      "count": 65533,
      "max": [
        24.321075439453125,
        14.735077857971191,
        28.325603485107422
      ],
      "min": [
        -19.707311630249023,
        -14.47914981842041,
        -0.6281223297119141
      ],
      "type": "VEC3"
    },
    {
      "bufferView": 2,
      "byteOffset": 7077540,
      "componentType": 5126,
      "count": 65533,
      "type": "VEC3"
    },
    {
      "bufferView": 1,
      "byteOffset": 2097048,
      "componentType": 5126,
      "count": 65533,
      "type": "VEC2"
    },
    {
      "bufferView": 0,
      "byteOffset": 3793260,
      "componentType": 5125,
      "count": 220272,
      "type": "SCALAR"
    },
    {
      "bufferView": 2,
      "byteOffset": 7863936,
      "componentType": 5126,
      "count": 48622,
      "max": [
        24.26782989501953,
        10.205473899841309,
        25.290428161621094
      ],
      "min": [
        -29.974040985107422,
        -7.394092559814453,
        -3.4020423889160156
      ],
      "type": "VEC3"
    },
    {
      "bufferView": 2,
      "byteOffset": 8447400,
      "componentType": 5126,
      "count": 48622,
      "type": "VEC3"
    },
    {
      "bufferView": 1,
      "byteOffset": 2621312,
      "componentType": 5126,
      "count": 48622,
      "type": "VEC2"
    },
    {
      "bufferView": 0,
      "byteOffset": 4674348,
      "componentType": 5125,
      "count": 157596,
      "type": "SCALAR"
    },
    {
      "bufferView": 2,
      "byteOffset": 9030864,
      "componentType": 5126,
      "count": 65532,
      "max": [
        24.851280212402344,
        19.608776092529297,
        28.416269302368164
      ],
      "min": [
        -30.79270362854004,
        -14.140366554260254,
        -2.983966827392578
      ],
      "type": "VEC3"
    },
    {
      "bufferView": 2,
      "byteOffset": 9817248,
      "componentType": 5126,
      "count": 65532,
      "type": "VEC3"
    },
    {
      "bufferView": 1,
      "byteOffset": 3010288,
      "componentType": 5126,
      "count": 65532,
      "type": "VEC2"
    },
    {
      "bufferView": 0,
      "byteOffset": 5304732,
      "componentType": 5125,
      "count": 299088,
      "type": "SCALAR"
    },
    {
      "bufferView": 2,
      "byteOffset": 10603632,
      "componentType": 5126,
      "count": 65532,
      "max": [
        24.48237419128418,
        10.06768798828125,
        28.183883666992188
      ],
      "min": [
        -30.107467651367188,
        -12.110038757324219,
        -3.7336158752441406
      ],
      "type": "VEC3"
    },
    {
      "bufferView": 2,
      "byteOffset": 11390016,
      "componentType": 5126,
      "count": 65532,
      "type": "VEC3"
    },
    {
      "bufferView": 1,
      "byteOffset": 3534544,
      "componentType": 5126,
      "count": 65532,
      "type": "VEC2"
    },
    {
      "bufferView": 0,
      "byteOffset": 6501084,
      "componentType": 5125,
      "count": 281622,
      "type": "SCALAR"
    },
    {
      "bufferView": 2,
      "byteOffset": 12176400,
      "componentType": 5126,
      "count": 53504,
      "max": [
        24.48237419128418,
        14.91475772857666,
        28.36336898803711
      ],
      "min": [
        -30.528339385986328,
        -13.33665943145752,
        -0.5708751678466797
      ],
      "type": "VEC3"
    },
    {
      "bufferView": 2,
      "byteOffset": 12818448,
      "componentType": 5126,
      "count": 53504,
      "type": "VEC3"
    },
    {
      "bufferView": 1,
      "byteOffset": 4058800,
      "componentType": 5126,
      "count": 53504,
      "type": "VEC2"
    },
    {
      "bufferView": 0,
      "byteOffset": 7627572,
      "componentType": 5125,
      "count": 222411,
      "type": "SCALAR"
    }
  ],
  "asset": {
    "generator": "fab-model-conversion",
    "version": "2.0"
  },
  "bufferViews": [
    {
      "buffer": 0,
      "byteLength": 8517216,
      "target": 34963
    },
    {
      "buffer": 0,
      "byteLength": 4486832,
      "byteOffset": 8517216,
      "byteStride": 8,
      "target": 34962
    },
    {
      "buffer": 0,
      "byteLength": 13460496,
      "byteOffset": 13004048,
      "byteStride": 12,
      "target": 34962
    }
  ],
  "buffers": [
    {
      "byteLength": 26464544,
      "uri": "scene.bin"
    }
  ],
  "extensionsUsed": [
    "KHR_materials_unlit"
  ],
  "images": [
    {
      "uri": "textures/Material_u1_v1_baseColor.jpeg"
    },
    {
      "uri": "textures/Material_u2_v1_baseColor.jpeg"
    }
  ],
  "materials": [
    {
      "doubleSided": true,
      "extensions": {
        "KHR_materials_unlit": {}
      },
      "name": "Material_u1_v1",
      "pbrMetallicRoughness": {
        "baseColorTexture": {
          "index": 0
        },
        "metallicFactor": 0.0
      }
    },
    {
      "doubleSided": true,
      "extensions": {
        "KHR_materials_unlit": {}
      },
      "name": "Material_u2_v1",
      "pbrMetallicRoughness": {
        "baseColorTexture": {
          "index": 1
        },
        "metallicFactor": 0.0
      }
    }
  ],
  "meshes": [
    {
      "name": "meshNode_Material_u1_v1_0",
      "primitives": [
        {
          "attributes": {
            "NORMAL": 1,
            "POSITION": 0,
            "TEXCOORD_0": 2
          },
          "indices": 3,
          "material": 0,
          "mode": 4
        }
      ]
    },
    {
      "name": "meshNode_Material_u1_v1_0",
      "primitives": [
        {
          "attributes": {
            "NORMAL": 5,
            "POSITION": 4,
            "TEXCOORD_0": 6
          },
          "indices": 7,
          "material": 0,
          "mode": 4
        }
      ]
    },
    {
      "name": "meshNode_Material_u1_v1_0",
      "primitives": [
        {
          "attributes": {
            "NORMAL": 9,
            "POSITION": 8,
            "TEXCOORD_0": 10
          },
          "indices": 11,
          "material": 0,
          "mode": 4
        }
      ]
    },
    {
      "name": "meshNode_Material_u1_v1_0",
      "primitives": [
        {
          "attributes": {
            "NORMAL": 13,
            "POSITION": 12,
            "TEXCOORD_0": 14
          },
          "indices": 15,
          "material": 0,
          "mode": 4
        }
      ]
    },
    {
      "name": "meshNode_Material_u1_v1_0",
      "primitives": [
        {
          "attributes": {
            "NORMAL": 17,
            "POSITION": 16,
            "TEXCOORD_0": 18
          },
          "indices": 19,
          "material": 0,
          "mode": 4
        }
      ]
    },
    {
      "name": "meshNode_Material_u1_v1_0",
      "primitives": [
        {
          "attributes": {
            "NORMAL": 21,
            "POSITION": 20,
            "TEXCOORD_0": 22
          },
          "indices": 23,
          "material": 0,
          "mode": 4
        }
      ]
    },
    {
      "name": "meshNode_Material_u2_v1_0",
      "primitives": [
        {
          "attributes": {
            "NORMAL": 25,
            "POSITION": 24,
            "TEXCOORD_0": 26
          },
          "indices": 27,
          "material": 1,
          "mode": 4
        }
      ]
    },
    {
      "name": "meshNode_Material_u2_v1_0",
      "primitives": [
        {
          "attributes": {
            "NORMAL": 29,
            "POSITION": 28,
            "TEXCOORD_0": 30
          },
          "indices": 31,
          "material": 1,
          "mode": 4
        }
      ]
    },
    {
      "name": "meshNode_Material_u2_v1_0",
      "primitives": [
        {
          "attributes": {
            "NORMAL": 33,
            "POSITION": 32,
            "TEXCOORD_0": 34
          },
          "indices": 35,
          "material": 1,
          "mode": 4
        }
      ]
    }
  ],
  "nodes": [
    {
      "children": [
        1
      ],
      "matrix": [
        1.0,
        0.0,
        0.0,
        0.0,
        0.0,
        2.220446049250313e-16,
        -1.0,
        0.0,
        0.0,
        1.0,
        2.220446049250313e-16,
        0.0,
        0.0,
        0.0,
        0.0,
        1.0
      ],
      "name": "Sketchfab_model"
    },
    {
      "children": [
        2
      ],
      "matrix": [
        1.0,
        0.0,
        0.0,
        0.0,
        0.0,
        0.0,
        1.0,
        0.0,
        0.0,
        -1.0,
        0.0,
        0.0,
        0.0,
        0.0,
        0.0,
        1.0
      ],
      "name": "manahattan1.fbx"
    },
    {
      "children": [
        3
      ],
      "name": "RootNode"
    },
    {
      "children": [
        4,
        5,
        6,
        7,
        8,
        9,
        10,
        11,
        12
      ],
      "matrix": [
        7.549789970973109e-06,
        -2.7755575615628914e-15,
        99.99999999999972,
        0.0,
        32.03428735426237,
        94.73015838594219,
        -2.418521412362275e-06,
        0.0,
        -94.73015838594192,
        32.03428735426247,
        7.15192800373822e-06,
        0.0,
        0.0,
        0.0,
        0.0,
        1.0
      ],
      "name": "meshNode"
    },
    {
      "mesh": 0,
      "name": "meshNode_Material_u1_v1_0"
    },
    {
      "mesh": 1,
      "name": "meshNode_Material_u1_v1_0"
    },
    {
      "mesh": 2,
      "name": "meshNode_Material_u1_v1_0"
    },
    {
      "mesh": 3,
      "name": "meshNode_Material_u1_v1_0"
    },
    {
      "mesh": 4,
      "name": "meshNode_Material_u1_v1_0"
    },
    {
      "mesh": 5,
      "name": "meshNode_Material_u1_v1_0"
    },
    {
      "mesh": 6,
      "name": "meshNode_Material_u2_v1_0"
    },
    {
      "mesh": 7,
      "name": "meshNode_Material_u2_v1_0"
    },
    {
      "mesh": 8,
      "name": "meshNode_Material_u2_v1_0"
    }
  ],
  "samplers": [
    {
      "magFilter": 9729,
      "minFilter": 9987,
      "wrapS": 10497,
      "wrapT": 10497
    }
  ],
  "scene": 0,
  "scenes": [
    {
      "name": "Sketchfab_Scene",
      "nodes": [
        0
      ]
    }
  ],
  "textures": [
    {
      "sampler": 0,
      "source": 0
    },
    {
      "sampler": 0,
      "source": 1
    }
  ]
}
